<svg width="20" height="21" fill="none" xmlns="http://www.w3.org/2000/svg"><g clip-path="url(#a)"><path d="M10 1.333A4.167 4.167 0 0 1 14.167 5.5v1.667h2.5A.833.833 0 0 1 17.5 8v10a.833.833 0 0 1-.833.833H3.333A.834.834 0 0 1 2.5 18V8a.833.833 0 0 1 .833-.833h2.5V5.5A4.167 4.167 0 0 1 10 1.333Zm4.167 8.334H12.5v.833a.833.833 0 0 0 1.66.098l.007-.098v-.833Zm-6.667 0H5.833v.833a.834.834 0 0 0 1.661.098L7.5 10.5v-.833ZM10 3a2.5 2.5 0 0 0-2.496 2.353L7.5 5.5v1.667h5V5.5a2.5 2.5 0 0 0-2.353-2.496L10 3Z" fill="#939EB4"/><circle cx="16" cy="4" r="4" fill="#FF1212" stroke="#2C3E50" stroke-width="2"/></g><defs><clipPath id="a"><path fill="#fff" transform="translate(0 .5)" d="M0 0h20v20H0z"/></clipPath></defs></svg>