<svg width="153" height="22" fill="none" xmlns="http://www.w3.org/2000/svg"><path d="M9.306 17.308c-1.232 0-2.369-.198-3.41-.594a8.337 8.337 0 0 1-2.728-1.672 7.935 7.935 0 0 1-1.782-2.552C.961 11.522.748 10.459.748 9.3c0-1.159.213-2.222.638-3.19a7.69 7.69 0 0 1 1.782-2.53 8.15 8.15 0 0 1 2.728-1.694c1.041-.396 2.178-.594 3.41-.594 1.247 0 2.383.198 3.41.594a7.912 7.912 0 0 1 2.706 1.694 7.69 7.69 0 0 1 1.782 2.53c.44.968.66 2.031.66 3.19 0 1.159-.22 2.23-.66 3.212a7.69 7.69 0 0 1-1.782 2.53 8.089 8.089 0 0 1-2.706 1.672c-1.027.396-2.163.594-3.41.594Zm0-3.608c.587 0 1.13-.103 1.628-.308a3.726 3.726 0 0 0 1.32-.88 4.09 4.09 0 0 0 .88-1.408 4.76 4.76 0 0 0 .33-1.804c0-.675-.11-1.276-.33-1.804a3.865 3.865 0 0 0-.88-1.386 3.593 3.593 0 0 0-1.32-.902A4.235 4.235 0 0 0 9.306 4.9c-.587 0-1.137.103-1.65.308a3.852 3.852 0 0 0-1.32.902c-.367.381-.66.843-.88 1.386-.205.528-.308 1.13-.308 1.804 0 .66.103 1.261.308 1.804.22.543.513 1.012.88 1.408.381.381.821.675 1.32.88a4.402 4.402 0 0 0 1.65.308Zm18.407-8.822c.924 0 1.76.19 2.508.572.748.367 1.335.939 1.76 1.716.44.777.66 1.782.66 3.014V17h-4.18v-6.138c0-.85-.175-1.467-.527-1.848-.338-.396-.815-.594-1.43-.594-.44 0-.844.103-1.21.308-.367.19-.653.491-.858.902-.206.41-.308.946-.308 1.606V17h-4.18V5.076h3.982v3.388l-.77-.99c.454-.865 1.078-1.51 1.87-1.936.791-.44 1.686-.66 2.683-.66ZM35.266 17V.676h4.18V17h-4.18Zm14.178 0v-2.222l-.286-.55v-4.092c0-.66-.205-1.166-.616-1.518-.396-.367-1.034-.55-1.914-.55a5.6 5.6 0 0 0-1.738.286c-.586.176-1.085.425-1.496.748l-1.408-2.838c.675-.44 1.482-.777 2.42-1.012.954-.25 1.9-.374 2.838-.374 1.936 0 3.432.447 4.488 1.342 1.071.88 1.606 2.266 1.606 4.158V17h-3.894Zm-3.52.198c-.953 0-1.76-.161-2.42-.484-.66-.323-1.166-.763-1.518-1.32a3.541 3.541 0 0 1-.506-1.87c0-.733.184-1.364.55-1.892.382-.543.961-.953 1.738-1.232.778-.293 1.782-.44 3.014-.44h2.816v2.178h-2.244c-.674 0-1.151.11-1.43.33-.264.22-.396.513-.396.88s.14.66.418.88c.279.22.66.33 1.144.33.455 0 .866-.11 1.232-.33.382-.235.66-.587.836-1.056l.572 1.54c-.22.821-.652 1.445-1.298 1.87-.63.41-1.466.616-2.508.616Zm11.884 4.268c-.63 0-1.269-.103-1.914-.308-.63-.19-1.144-.447-1.54-.77l1.452-2.926c.25.22.535.389.858.506.337.132.667.198.99.198.455 0 .814-.103 1.078-.308.264-.205.491-.528.682-.968l.55-1.386.33-.418 4.048-10.01h3.982l-5.148 12.408c-.41 1.027-.887 1.826-1.43 2.398-.528.587-1.122.997-1.782 1.232-.645.235-1.364.352-2.156.352Zm1.628-3.96-5.258-12.43h4.29l3.872 9.636-2.904 2.794ZM77.17 4.878c.923 0 1.76.19 2.507.572.749.367 1.335.939 1.76 1.716.44.777.66 1.782.66 3.014V17h-4.18v-6.138c0-.85-.175-1.467-.528-1.848-.337-.396-.814-.594-1.43-.594-.44 0-.843.103-1.21.308-.366.19-.652.491-.858.902-.205.41-.307.946-.307 1.606V17h-4.18V5.076h3.981v3.388l-.77-.99c.455-.865 1.079-1.51 1.87-1.936.792-.44 1.687-.66 2.684-.66ZM94.569 17.11a9.079 9.079 0 0 1-2.706-.396c-.85-.279-1.518-.623-2.002-1.034l.704-1.232c.47.352 1.07.66 1.804.924.733.25 1.503.374 2.31.374 1.1 0 1.892-.169 2.376-.506.484-.352.726-.814.726-1.386 0-.425-.14-.755-.418-.99-.264-.25-.616-.433-1.056-.55-.44-.132-.931-.242-1.474-.33a31.77 31.77 0 0 1-1.628-.308 6.278 6.278 0 0 1-1.452-.506c-.44-.235-.8-.55-1.078-.946-.264-.396-.396-.924-.396-1.584 0-.63.176-1.195.528-1.694.352-.499.865-.887 1.54-1.166.69-.293 1.525-.44 2.508-.44.748 0 1.496.103 2.244.308.748.19 1.364.447 1.848.77l-.682 1.254a5.076 5.076 0 0 0-1.65-.748 6.612 6.612 0 0 0-1.76-.242c-1.041 0-1.811.183-2.31.55-.484.352-.726.807-.726 1.364 0 .44.132.785.396 1.034.279.25.638.447 1.078.594.455.132.946.242 1.474.33.543.088 1.078.198 1.606.33a6.225 6.225 0 0 1 1.474.506c.455.205.814.506 1.078.902.279.381.418.887.418 1.518 0 .675-.19 1.261-.572 1.76-.367.484-.91.865-1.628 1.144-.704.264-1.562.396-2.574.396Zm14.878-.11v-2.552l-.066-.418V9.762c0-.983-.278-1.738-.836-2.266-.542-.528-1.356-.792-2.442-.792-.748 0-1.459.125-2.134.374-.674.25-1.246.58-1.716.99l-.704-1.166c.587-.499 1.291-.88 2.112-1.144a8.029 8.029 0 0 1 2.596-.418c1.496 0 2.648.374 3.454 1.122.822.733 1.232 1.855 1.232 3.366V17h-1.496Zm-3.982.11c-.865 0-1.62-.14-2.266-.418-.63-.293-1.114-.69-1.452-1.188a3.135 3.135 0 0 1-.506-1.76c0-.601.14-1.144.418-1.628.294-.499.763-.895 1.408-1.188.66-.308 1.54-.462 2.64-.462h3.982v1.166h-3.938c-1.114 0-1.892.198-2.332.594a1.933 1.933 0 0 0-.638 1.474c0 .66.257 1.188.77 1.584.514.396 1.232.594 2.156.594.88 0 1.636-.198 2.266-.594.646-.41 1.115-.997 1.408-1.76l.352 1.078c-.293.763-.806 1.371-1.54 1.826-.718.455-1.628.682-2.728.682Zm12.476-.11-5.126-11.55h1.628l4.708 10.714h-.77l4.774-10.714h1.54L119.547 17h-1.606Zm13.23.11c-1.1 0-2.09-.25-2.97-.748a5.424 5.424 0 0 1-2.046-2.068c-.499-.895-.748-1.921-.748-3.08 0-1.173.249-2.2.748-3.08a5.267 5.267 0 0 1 2.046-2.046c.88-.499 1.87-.748 2.97-.748 1.012 0 1.914.227 2.706.682.806.455 1.444 1.122 1.914 2.002.484.865.726 1.929.726 3.19 0 1.247-.235 2.31-.704 3.19-.47.88-1.108 1.555-1.914 2.024-.792.455-1.702.682-2.728.682Zm.11-1.386c.821 0 1.554-.183 2.2-.55a4.002 4.002 0 0 0 1.54-1.584c.381-.69.572-1.481.572-2.376 0-.91-.191-1.701-.572-2.376a3.854 3.854 0 0 0-1.54-1.562c-.646-.381-1.379-.572-2.2-.572-.807 0-1.533.19-2.178.572a4.036 4.036 0 0 0-1.54 1.562c-.382.675-.572 1.467-.572 2.376 0 .895.19 1.687.572 2.376a4.197 4.197 0 0 0 1.54 1.584c.645.367 1.371.55 2.178.55ZM135.637 17v-3.476l.154-2.332-.22-2.332V.676h1.562V17h-1.496Zm10.554.11c-1.115 0-2.12-.25-3.014-.748a5.71 5.71 0 0 1-2.09-2.09c-.514-.895-.77-1.914-.77-3.058 0-1.159.256-2.178.77-3.058a5.544 5.544 0 0 1 2.09-2.068c.88-.499 1.884-.748 3.014-.748 1.144 0 2.156.25 3.036.748a5.353 5.353 0 0 1 2.09 2.068c.513.88.77 1.9.77 3.058 0 1.144-.257 2.163-.77 3.058a5.508 5.508 0 0 1-2.09 2.09c-.895.499-1.907.748-3.036.748Zm0-1.386c.836 0 1.576-.183 2.222-.55a4.05 4.05 0 0 0 1.518-1.584c.381-.69.572-1.481.572-2.376 0-.91-.191-1.701-.572-2.376a3.897 3.897 0 0 0-1.518-1.562c-.646-.381-1.379-.572-2.2-.572-.822 0-1.555.19-2.2.572a4.036 4.036 0 0 0-1.54 1.562c-.382.675-.572 1.467-.572 2.376 0 .895.19 1.687.572 2.376a4.197 4.197 0 0 0 1.54 1.584c.645.367 1.371.55 2.178.55Z" fill="#fff"/></svg>